<svg viewBox="0 0 720 460" xmlns="http://www.w3.org/2000/svg" role="img" font-family="ui-monospace, 'Cascadia Code', 'Source Code Pro', monospace">
  <title>linux-monitoring-stack architecture diagram</title>
  <desc>Three-tier architecture: Presentation tier (SQL queries), Application tier (monitor, tomcat, loader), Data tier (Oracle DB)</desc>

  <defs>
    <marker id="arrowhead" markerWidth="8" markerHeight="6" refX="7" refY="3" orient="auto">
      <polygon points="0 0, 8 3, 0 6" fill="#9ca3af" />
    </marker>
    <marker id="arrowhead-blue" markerWidth="8" markerHeight="6" refX="7" refY="3" orient="auto">
      <polygon points="0 0, 8 3, 0 6" fill="#3b82f6" />
    </marker>
    <marker id="arrowhead-green" markerWidth="8" markerHeight="6" refX="7" refY="3" orient="auto">
      <polygon points="0 0, 8 3, 0 6" fill="#10b981" />
    </marker>
    <marker id="arrowhead-rev" markerWidth="8" markerHeight="6" refX="1" refY="3" orient="auto">
      <polygon points="8 0, 0 3, 8 6" fill="#3b82f6" />
    </marker>
  </defs>

  <!-- ── Presentation Tier ── -->
  <rect x="60" y="20" width="600" height="72" rx="10" fill="#f3f4f6" stroke="#e5e7eb" stroke-width="1.5"/>
  <text x="360" y="44" text-anchor="middle" font-size="11" font-weight="600" fill="#6b7280" letter-spacing="0.08em">PRESENTATION TIER</text>
  <rect x="230" y="52" width="260" height="30" rx="6" fill="#ffffff" stroke="#e5e7eb" stroke-width="1.5"/>
  <text x="360" y="72" text-anchor="middle" font-size="12" fill="#111827">SQL queries · Oracle SQL*Plus</text>

  <!-- vertical connector pres→app -->
  <line x1="360" y1="92" x2="360" y2="122" stroke="#9ca3af" stroke-width="1.5" stroke-dasharray="4,3" marker-end="url(#arrowhead)"/>

  <!-- ── Application Tier ── -->
  <rect x="60" y="122" width="600" height="220" rx="10" fill="#f3f4f6" stroke="#e5e7eb" stroke-width="1.5"/>
  <text x="360" y="146" text-anchor="middle" font-size="11" font-weight="600" fill="#6b7280" letter-spacing="0.08em">APPLICATION TIER</text>

  <!-- monitor box -->
  <rect x="92" y="158" width="165" height="78" rx="8" fill="#ffffff" stroke="#3b82f6" stroke-width="2"/>
  <text x="174" y="182" text-anchor="middle" font-size="13" font-weight="700" fill="#3b82f6">monitor</text>
  <text x="174" y="200" text-anchor="middle" font-size="11" fill="#6b7280">bash + curl</text>
  <text x="174" y="216" text-anchor="middle" font-size="10" fill="#6b7280">every 60 s</text>
  <text x="174" y="230" text-anchor="middle" font-size="10" fill="#6b7280">RAM · CPU · Disk</text>

  <!-- tomcat box -->
  <rect x="463" y="158" width="165" height="78" rx="8" fill="#ffffff" stroke="#f59e0b" stroke-width="2"/>
  <text x="546" y="182" text-anchor="middle" font-size="13" font-weight="700" fill="#f59e0b">tomcat</text>
  <text x="546" y="200" text-anchor="middle" font-size="11" fill="#6b7280">Apache Tomcat</text>
  <text x="546" y="216" text-anchor="middle" font-size="10" fill="#6b7280">:8080 HTTP</text>
  <text x="546" y="230" text-anchor="middle" font-size="10" fill="#6b7280">:8443 mTLS</text>

  <!-- mTLS arrow monitor→tomcat -->
  <line x1="257" y1="188" x2="461" y2="188" stroke="#3b82f6" stroke-width="2" marker-end="url(#arrowhead-blue)"/>
  <text x="360" y="182" text-anchor="middle" font-size="10" fill="#3b82f6" font-weight="600">HTTPS :8443 (mTLS)</text>

  <!-- HTTP arrow tomcat→monitor (return) -->
  <line x1="461" y1="206" x2="257" y2="206" stroke="#3b82f6" stroke-width="1.5" stroke-dasharray="5,3" marker-end="url(#arrowhead-rev)"/>
  <text x="360" y="222" text-anchor="middle" font-size="10" fill="#3b82f6">HTTP :8080</text>

  <!-- loader box -->
  <rect x="277" y="264" width="165" height="64" rx="8" fill="#ffffff" stroke="#10b981" stroke-width="2"/>
  <text x="360" y="288" text-anchor="middle" font-size="13" font-weight="700" fill="#10b981">loader</text>
  <text x="360" y="306" text-anchor="middle" font-size="11" fill="#6b7280">Python · python-oracledb</text>
  <text x="360" y="320" text-anchor="middle" font-size="10" fill="#6b7280">reads logs → inserts rows</text>

  <!-- monitor writes logs (arrow down-right) -->
  <line x1="174" y1="236" x2="290" y2="262" stroke="#9ca3af" stroke-width="1.5" stroke-dasharray="4,3" marker-end="url(#arrowhead)"/>
  <text x="198" y="258" text-anchor="middle" font-size="9" fill="#9ca3af">writes logs</text>

  <!-- vertical connector app→data -->
  <line x1="360" y1="328" x2="360" y2="358" stroke="#10b981" stroke-width="2" marker-end="url(#arrowhead-green)"/>

  <!-- ── Data Tier ── -->
  <rect x="60" y="358" width="600" height="82" rx="10" fill="#f3f4f6" stroke="#e5e7eb" stroke-width="1.5"/>
  <text x="360" y="382" text-anchor="middle" font-size="11" font-weight="600" fill="#6b7280" letter-spacing="0.08em">DATA TIER</text>

  <!-- oracle box -->
  <rect x="210" y="390" width="300" height="38" rx="6" fill="#ffffff" stroke="#dc2626" stroke-width="2"/>
  <text x="360" y="410" text-anchor="middle" font-size="13" font-weight="700" fill="#dc2626">Oracle DB Free 23ai</text>
  <text x="360" y="424" text-anchor="middle" font-size="10" fill="#6b7280">METRICS · STATUS · :1521</text>

  <!-- Legend -->
  <line x1="92" y1="448" x2="116" y2="448" stroke="#3b82f6" stroke-width="2"/>
  <text x="120" y="452" font-size="10" fill="#6b7280">mTLS / HTTP check</text>
  <line x1="240" y1="448" x2="264" y2="448" stroke="#10b981" stroke-width="2"/>
  <text x="268" y="452" font-size="10" fill="#6b7280">DB insert</text>
  <line x1="356" y1="448" x2="380" y2="448" stroke="#9ca3af" stroke-width="1.5" stroke-dasharray="4,3"/>
  <text x="384" y="452" font-size="10" fill="#6b7280">log file (shared volume)</text>
</svg>
